# xmcd
#
# Track frame offsets:
#	150
#	19591
#	32056
#	51020
#	69241
#	86087
#
# Disc length: 1413 seconds
#
# Revision: 0
# Processed by: cddbd v1.5.1PL2 Copyright (c) Steve Scherf et al.
# Submitted via: audiograbber 1.83.01
#
DISCID=41058306
DTITLE=Jimmy Frank and Geto'n - Dynamic Duo
DYEAR=2001
DGENRE=Blues
TTITLE0=A Day in the Life of
TTITLE1=A Fool
TTITLE2=Autumn Leaves
TTITLE3=Comin Home
TTITLE4=Unchain My Heart
TTITLE5=What's Goin On
EXTD=Recorded in Palm Springs, CA  2001
EXTT0=
EXTT1=
EXTT2=
EXTT3=
EXTT4=
EXTT5=
PLAYORDER=
